<svg xmlns="http://www.w3.org/2000/svg" width="611.143" height="276.584" viewBox="0 0 611.143 276.584">
  <g id="Grupo_143" data-name="Grupo 143" transform="translate(-101.682 -86.021)">
    <path id="Trazado_64" data-name="Trazado 64" d="M-1943.429-23112.189v15.705l112.945-1.744v-13.961Z" transform="translate(2442.389 23313.648)" fill="#b9bfbb" stroke="#707070" stroke-width="1"/>
    <path id="Trazado_58" data-name="Trazado 58" d="M-443.9-19552.928c-10.264-10.914-17.212-28.127-24.3-40.85-24.068-43.2-31.447-84.223-31.447-84.223s-27.877,111.459-49.269,146.787c-1.6,2.648,8.591,1.039,18.474,1.592,24.633-.975,66.006.566,73.252,0C-429.935-19531.754-443.9-19552.928-443.9-19552.928Z" transform="translate(844.74 19785.373)" fill="#7fdceb" opacity="0.4"/>
    <path id="Trazado_42" data-name="Trazado 42" d="M-108.261-19590.25c-.926-4.5-222.174,0-222.174,0l-28.7,37.816H-637.775l-5.554,27.914h530.439S-107.335-19585.752-108.261-19590.25Z" transform="translate(820.456 19807.465)" fill="#039984"/>
    <path id="Trazado_43" data-name="Trazado 43" d="M-152.038-19460.234c-19.8,3.039-92.737.488-182.322.57-25.949.023-81.888-.3-81.888-.3l-228.426-68.852,1.88-9.543,528.743-.039S-126.395-19464.168-152.038-19460.234Z" transform="translate(820.11 19821.346)" fill="#a10b0b"/>
    <path id="Trazado_44" data-name="Trazado 44" d="M-261.168-19629.967H-382v33.658h112.9v-12.465Z" transform="translate(880.87 19797.75)" fill="#b9bfbb"/>
    <path id="Trazado_45" data-name="Trazado 45" d="M-274.034-19631.607c-10.548-1.1-104.716-8.357-104.716-8.357l-2.493,13.2,117.374,1.1S-263.485-19630.5-274.034-19631.607Z" transform="translate(886.725 19795.176)" fill="#039984"/>
    <rect id="Rectángulo_148" data-name="Rectángulo 148" width="20.122" height="21.38" transform="translate(508.303 172.772)" fill="#fff"/>
    <rect id="Rectángulo_149" data-name="Rectángulo 149" width="20.122" height="21.38" transform="translate(534.713 172.772)" fill="#fff"/>
    <rect id="Rectángulo_150" data-name="Rectángulo 150" width="20.122" height="21.38" transform="translate(561.124 172.772)" fill="#fff"/>
    <rect id="Rectángulo_151" data-name="Rectángulo 151" width="20.122" height="21.38" transform="translate(587.535 172.772)" fill="#fff"/>
    <circle id="Elipse_37" data-name="Elipse 37" cx="8.175" cy="8.175" r="8.175" transform="translate(490.696 228.109)" fill="#fff"/>
    <circle id="Elipse_37-2" data-name="Elipse 37" cx="8.175" cy="8.175" r="8.175" transform="translate(538.486 228.109)" fill="#fff"/>
    <circle id="Elipse_37-3" data-name="Elipse 37" cx="8.175" cy="8.175" r="8.175" transform="translate(586.277 228.109)" fill="#fff"/>
    <circle id="Elipse_37-4" data-name="Elipse 37" cx="8.175" cy="8.175" r="8.175" transform="translate(634.068 228.109)" fill="#fff"/>
    <rect id="Rectángulo_152" data-name="Rectángulo 152" width="33.957" height="12.576" rx="5" transform="translate(664.251 255.777)" fill="#fff"/>
    <rect id="Rectángulo_153" data-name="Rectángulo 153" width="30.184" height="6.288" transform="translate(196.406 258.292)" fill="#fff"/>
    <rect id="Rectángulo_153-2" data-name="Rectángulo 153" width="30.184" height="6.288" transform="translate(250.485 258.292)" fill="#fff"/>
    <rect id="Rectángulo_153-3" data-name="Rectángulo 153" width="30.184" height="6.288" transform="translate(304.563 258.292)" fill="#fff"/>
    <rect id="Rectángulo_153-4" data-name="Rectángulo 153" width="30.184" height="6.288" transform="translate(358.642 258.292)" fill="#fff"/>
    <rect id="Rectángulo_153-5" data-name="Rectángulo 153" width="30.184" height="6.288" transform="translate(412.721 258.292)" fill="#fff"/>
    <rect id="Rectángulo_154" data-name="Rectángulo 154" width="526.955" height="5.031" transform="translate(178.799 279.672)" fill="#fff"/>
    <rect id="Rectángulo_155" data-name="Rectángulo 155" width="376.037" height="5.031" transform="translate(181.314 269.611)" fill="#fff"/>
    <path id="Trazado_49" data-name="Trazado 49" d="M-381.71-19603.432l-28.264-84.023h17.2l24.932,59.84Z" transform="translate(880.58 19782.938)" fill="#bfbfbf"/>
    <path id="Trazado_50" data-name="Trazado 50" d="M-409.974-19686.076v-6.732l27.176,3.738v2.994Z" transform="translate(880.58 19781.563)" fill="#039984"/>
    <path id="Trazado_51" data-name="Trazado 51" d="M-444.044-19549.818l-38.571-62.553-65.885-33.062v-2.916l5.955-5.385,167.7-33.709" transform="translate(844.889 19782.947)" fill="none" stroke="#b4b4b4" stroke-width="1"/>
    <path id="Trazado_52" data-name="Trazado 52" d="M-449.931-19548.262l-7.163-82.426-5.056-10.535-42.136-39.605-4.635-5.059v-5.053l4.635-2.531,119.666,7.584" transform="translate(855.086 19781.389)" fill="none" stroke="#b4b4b4" stroke-width="1"/>
    <circle id="Elipse_41" data-name="Elipse 41" cx="5.659" cy="5.659" r="5.659" transform="translate(391.341 140.073)" fill="#909090"/>
    <path id="Trazado_53" data-name="Trazado 53" d="M-454.31-19549.818l13.483-99.7,42.557-37.92" transform="translate(869.157 19782.945)" fill="none" stroke="#b4b4b4" stroke-width="1"/>
    <circle id="Elipse_39" data-name="Elipse 39" cx="4.402" cy="4.402" r="4.402" transform="translate(361.158 168.999)" fill="#909090"/>
    <circle id="Elipse_40" data-name="Elipse 40" cx="5.659" cy="5.659" r="5.659" transform="translate(339.778 96.056)" fill="#909090"/>
    <circle id="Elipse_38" data-name="Elipse 38" cx="5.659" cy="5.659" r="5.659" transform="translate(290.729 137.558)" fill="#909090"/>
    <g id="Rectángulo_157" data-name="Rectángulo 157" transform="translate(181.314 309.856)" fill="#656d6b" stroke="#707070" stroke-width="1">
      <rect width="46.533" height="49.048" stroke="none"/>
      <rect x="0.5" y="0.5" width="45.533" height="48.048" fill="none"/>
    </g>
    <g id="Rectángulo_156" data-name="Rectángulo 156" transform="translate(197.663 311.114)" fill="#fff" stroke="#707070" stroke-width="1">
      <rect width="5.031" height="46.533" rx="2" stroke="none"/>
      <rect x="0.5" y="0.5" width="4.031" height="45.533" rx="1.5" fill="none"/>
    </g>
    <path id="Trazado_54" data-name="Trazado 54" d="M-602.131-19493.17c-11.37-4.93-8.9-20.266-8.9-20.266h8.9Z" transform="translate(828.72 19827.773)" fill="#fff" stroke="#707070" stroke-width="1"/>
    <path id="Trazado_55" data-name="Trazado 55" d="M-602.131-19513.439c-11.37,4.93-8.9,20.268-8.9,20.268h8.9Z" transform="translate(828.72 19847.9)" fill="#fff" stroke="#707070" stroke-width="1"/>
    <path id="Trazado_56" data-name="Trazado 56" d="M-604-19519.6v51.826h175.616Z" transform="translate(830.589 19826.189)" fill="#5a382e"/>
    <path id="Trazado_57" data-name="Trazado 57" d="M-436.082-19434.627c-76.687-72.9-72.529-210.373-72.529-210.373s-50.877,104.229-97.868,154.506c-51.429,55.031-99.353,56.611-96.736,55.867C-698.231-19436.047-436.082-19434.627-436.082-19434.627Z" transform="translate(805 19793.877)" fill="#7fdceb" opacity="0.32"/>
    <rect id="Rectángulo_158" data-name="Rectángulo 158" width="42.76" height="16.349" transform="translate(387.568 239.428)" fill="#b8bdc1"/>
    <rect id="Rectángulo_159" data-name="Rectángulo 159" width="42.76" height="7.546" transform="translate(387.568 233.139)" fill="#fff"/>
    <path id="Trazado_60" data-name="Trazado 60" d="M-420.483-19569l7.227,6.191" transform="translate(877.627 19813.459)" fill="none" stroke="#707070" stroke-width="1"/>
    <path id="Trazado_61" data-name="Trazado 61" d="M-414.933-19575.5l7.013,6.635" transform="translate(878.771 19811.785)" fill="none" stroke="#707070" stroke-width="1"/>
    <path id="Trazado_62" data-name="Trazado 62" d="M-410.42-19581.807l7.348,5.516" transform="translate(880.465 19810.158)" fill="none" stroke="#707070" stroke-width="1"/>
    <path id="Trazado_63" data-name="Trazado 63" d="M-387.5-19602.773v14.875" transform="translate(886.37 19804.756)" fill="none" stroke="#707070" stroke-width="1"/>
    <path id="Trazado_63-2" data-name="Trazado 63" d="M-387.5-19602.773v14.875" transform="translate(902.72 19804.756)" fill="none" stroke="#707070" stroke-width="1"/>
    <path id="Trazado_63-3" data-name="Trazado 63" d="M-387.5-19602.773v13.906" transform="translate(919.069 19804.756)" fill="none" stroke="#707070" stroke-width="1"/>
    <path id="Trazado_63-4" data-name="Trazado 63" d="M-387.5-19602.773v13.906" transform="translate(935.419 19804.756)" fill="none" stroke="#707070" stroke-width="1"/>
    <path id="Trazado_63-5" data-name="Trazado 63" d="M-387.5-19602.773v13.906" transform="translate(951.768 19804.756)" fill="none" stroke="#707070" stroke-width="1"/>
    <path id="Trazado_63-6" data-name="Trazado 63" d="M-387.5-19602.773v13.906" transform="translate(968.118 19804.756)" fill="none" stroke="#707070" stroke-width="1"/>
    <path id="Trazado_63-7" data-name="Trazado 63" d="M-387.5-19602.773v13.906" transform="translate(984.467 19804.756)" fill="none" stroke="#707070" stroke-width="1"/>
    <path id="Trazado_63-8" data-name="Trazado 63" d="M-387.5-19602.773v13.906" transform="translate(1000.816 19804.756)" fill="none" stroke="#707070" stroke-width="1"/>
    <path id="Trazado_63-9" data-name="Trazado 63" d="M-387.5-19602.773v13.906" transform="translate(1017.166 19804.756)" fill="none" stroke="#707070" stroke-width="1"/>
    <path id="Trazado_63-10" data-name="Trazado 63" d="M-387.5-19602.773v13.906" transform="translate(1033.515 19804.756)" fill="none" stroke="#707070" stroke-width="1"/>
    <path id="Trazado_63-11" data-name="Trazado 63" d="M-387.5-19602.773v13.906" transform="translate(1049.865 19804.756)" fill="none" stroke="#707070" stroke-width="1"/>
    <path id="Trazado_63-12" data-name="Trazado 63" d="M-387.5-19602.773v13.906" transform="translate(1066.214 19804.756)" fill="none" stroke="#707070" stroke-width="1"/>
    <path id="Trazado_63-13" data-name="Trazado 63" d="M-387.5-19602.773v13.906" transform="translate(1082.564 19804.756)" fill="none" stroke="#707070" stroke-width="1"/>
    <path id="Trazado_63-14" data-name="Trazado 63" d="M-387.5-19602.773v15.031" transform="translate(1098.913 19804.756)" fill="none" stroke="#707070" stroke-width="1"/>
    <path id="Trazado_59" data-name="Trazado 59" d="M-164.169-19586.615v-16.158H-383.7l-42.136,49.3v3.439" transform="translate(876.494 19804.756)" fill="none" stroke="#707070" stroke-width="1"/>
    <path id="Trazado_46" data-name="Trazado 46" d="M-547.85-19662.283l-2.95,5.477,189.19,96.49,3.371-3.369Z" transform="translate(844.296 19789.428)" fill="#909090"/>
    <path id="Trazado_48" data-name="Trazado 48" d="M-442.42-19660.551l-2.414,2.451,68.4,90.707,2.615-1.436Z" transform="translate(871.598 19789.869)" fill="#909090"/>
    <path id="Trazado_47" data-name="Trazado 47" d="M-509.771-19691.74l3.889-3.238,140.345,132.889-2.269,3.564Z" transform="translate(854.867 19781)" fill="#909090"/>
  </g>
</svg>
