<svg id="clock" xmlns="http://www.w3.org/2000/svg" width="74.667" height="74.667" viewBox="0 0 74.667 74.667">
  <circle id="Elipse_157" data-name="Elipse 157" cx="36.24" cy="36.24" r="36.24" transform="translate(1.094 1.094)" fill="#f59393"/>
  <path id="Trazado_1070" data-name="Trazado 1070" d="M100.889,50.538a36.242,36.242,0,0,1-50.351,50.351,36.241,36.241,0,1,0,50.351-50.351Z" transform="translate(-43.168 -43.168)" fill="#ec6161"/>
  <circle id="Elipse_158" data-name="Elipse 158" cx="30.936" cy="30.936" r="30.936" transform="translate(6.397 6.397)" fill="#daeaef"/>
  <path id="Trazado_1071" data-name="Trazado 1071" d="M139.167,95.531a30.937,30.937,0,0,1-43.636,43.636,30.937,30.937,0,1,0,43.636-43.636Z" transform="translate(-81.599 -81.599)" fill="#a8d0d5"/>
  <path id="Trazado_1072" data-name="Trazado 1072" d="M245.266,128.3h-4.419V108.684a2.188,2.188,0,0,1,2.188-2.188h.044a2.188,2.188,0,0,1,2.188,2.188Z" transform="translate(-205.723 -90.965)" fill="#786e79"/>
  <path id="Trazado_1073" data-name="Trazado 1073" d="M245.286,248.41l3.125-3.125,11.064,11.064a2.187,2.187,0,0,1,0,3.094l-.031.032a2.188,2.188,0,0,1-3.094,0Z" transform="translate(-209.515 -209.514)" fill="#786e79"/>
  <circle id="Elipse_159" data-name="Elipse 159" cx="4.419" cy="4.419" r="4.419" transform="translate(32.914 32.914)" fill="#97e4f9"/>
  <path id="Trazado_1074" data-name="Trazado 1074" d="M234.226,228.38a4.419,4.419,0,0,1-5.846,5.846,4.419,4.419,0,1,0,5.846-5.846Z" transform="translate(-195.075 -195.075)" fill="#0acefa"/>
  <path id="Trazado_1075" data-name="Trazado 1075" d="M63.732,10.935A37.334,37.334,0,0,0,11.06,10.81,1.094,1.094,0,1,0,12.6,12.364a35.108,35.108,0,1,1-3.316,3.79,1.094,1.094,0,0,0-1.745-1.32A37.335,37.335,0,0,0,37.333,74.667a37.334,37.334,0,0,0,26.4-63.732Z"/>
  <path id="Trazado_1076" data-name="Trazado 1076" d="M223.708,127.407a5.536,5.536,0,0,0,.784-.057l3.578,3.578a1.094,1.094,0,0,0,1.547-1.547l-2.883-2.883a5.558,5.558,0,0,0,1.579-1.579l7.232,7.232a1.12,1.12,0,0,1,0,1.58,1.118,1.118,0,0,1-1.579,0l-.739-.74a1.094,1.094,0,0,0-1.547,1.547l.739.74a3.3,3.3,0,0,0,4.673-4.673l-7.929-7.929a5.5,5.5,0,0,0-2.153-5.195v-3.688a1.094,1.094,0,1,0-2.187,0v2.7a5.537,5.537,0,0,0-2.232,0V102.3a1.117,1.117,0,0,1,1.116-1.116,1.119,1.119,0,0,1,1.116,1.116v6.385a1.094,1.094,0,0,0,2.188,0V102.3a3.307,3.307,0,0,0-3.3-3.3,3.307,3.307,0,0,0-3.3,3.3v15.182a5.511,5.511,0,0,0,3.3,9.924Zm0-8.839a3.326,3.326,0,1,1-3.326,3.326A3.33,3.33,0,0,1,223.708,118.568Z" transform="translate(-186.375 -84.56)"/>
  <path id="Trazado_1077" data-name="Trazado 1077" d="M45.747,91.045A32.03,32.03,0,1,0,36.366,68.4a31.82,31.82,0,0,0,9.381,22.649Zm6.8-47.92,2.09,3.62a1.094,1.094,0,1,0,1.894-1.094l-2.092-3.623A29.636,29.636,0,0,1,67.3,38.576v4.187a1.094,1.094,0,1,0,2.188,0V38.576a29.634,29.634,0,0,1,12.867,3.452L80.265,45.65a1.094,1.094,0,1,0,1.894,1.094l2.09-3.62a30.075,30.075,0,0,1,9.418,9.418l-3.62,2.09a1.094,1.094,0,1,0,1.094,1.894l3.623-2.092A29.636,29.636,0,0,1,98.216,67.3H94.029a1.094,1.094,0,0,0,0,2.188h4.187a29.636,29.636,0,0,1-3.452,12.867l-3.623-2.092a1.094,1.094,0,0,0-1.094,1.894l3.62,2.09a30.075,30.075,0,0,1-9.418,9.418l-2.09-3.62a1.094,1.094,0,1,0-1.894,1.094l2.092,3.623A29.636,29.636,0,0,1,69.49,98.217V94.029a1.094,1.094,0,1,0-2.187,0v4.187a29.634,29.634,0,0,1-12.867-3.452l2.092-3.623a1.094,1.094,0,1,0-1.894-1.094l-2.09,3.62a30.075,30.075,0,0,1-9.418-9.418l3.62-2.09a1.094,1.094,0,1,0-1.094-1.894l-3.623,2.092A29.636,29.636,0,0,1,38.576,69.49h4.187a1.094,1.094,0,1,0,0-2.187H38.576a29.636,29.636,0,0,1,3.452-12.867l3.623,2.092a1.094,1.094,0,1,0,1.094-1.894l-3.62-2.09a30.077,30.077,0,0,1,9.418-9.418Z" transform="translate(-31.063 -31.063)"/>
</svg>
