<svg id="Capa_1" enable-background="new 0 0 512 512" height="512" viewBox="0 0 512 512" width="512" xmlns="http://www.w3.org/2000/svg"><g><path d="m172.501 294.39h-137.982c-7.932 0-14.385 6.454-14.385 14.385v31.727c0 4.268 3.459 7.726 7.726 7.726s7.726-3.459 7.726-7.726v-30.66h32.761v30.66c0 4.268 3.459 7.726 7.726 7.726s7.726-3.459 7.726-7.726v-30.66h32.761v30.66c0 4.268 3.459 7.726 7.726 7.726s7.726-3.459 7.726-7.726v-30.66h40.487c4.267 0 7.726-3.459 7.726-7.726s-3.457-7.726-7.724-7.726z" fill="#8face0"/><path d="m194.293 250.339c-4.267 0-7.726-3.459-7.726-7.726v-41.524l-14.842-10.903c-3.439-2.526-4.179-7.362-1.652-10.801 2.527-3.438 7.361-4.181 10.801-1.652l15.259 11.209c3.687 2.708 5.887 7.056 5.887 11.63v42.041c-.001 4.267-3.46 7.726-7.727 7.726z" fill="#6a61b2"/><path d="m234.113 188.287 15.347 54.326h76.888l15.346-54.326z" fill="#8a94db"/><path d="m315.909 188.287-15.347 54.326h25.786l15.346-54.326z" fill="#717ed4"/><path d="m287.903 188.433c-4.268 0-7.726-3.459-7.726-7.726v-123.596c0-4.268 3.459-7.726 7.726-7.726s7.726 3.459 7.726 7.726v123.596c.001 4.267-3.458 7.726-7.726 7.726z" fill="#8face0"/><path d="m346.203 157.868h-116.599c-2.05 0-3.531 1.959-2.974 3.931l7.483 26.488h107.582l7.482-26.488c.557-1.972-.925-3.931-2.974-3.931z" fill="#d6e0f4"/><path d="m346.203 157.868h-25.786c2.049 0 3.531 1.959 2.974 3.931l-7.483 26.488h25.786l7.482-26.488c.558-1.972-.924-3.931-2.973-3.931z" fill="#b8c9ea"/><path d="m280.32 242.613h15.167c.091-.475.143-.964.143-1.465v-52.861h-15.453v52.861c0 .501.052.99.143 1.465z" fill="#d6e0f4"/><path d="m172.501 351.093v-103.329c0-2.845 2.306-5.151 5.151-5.151h173.911c5.941 0 11.38 3.334 14.075 8.628l50.838 99.852z" fill="#d6e0f4"/><path d="m365.639 251.241c-2.696-5.294-8.134-8.628-14.075-8.628h-28.054c5.941 0 11.38 3.334 14.075 8.628l50.838 99.852h28.054z" fill="#b8c9ea"/><path d="m320.09 278.773-56.829 38.544c-1.024.695-2.232 1.066-3.469 1.066h-87.291v32.711h243.976l-37.273-73.208h-56.223c-1.031-.001-2.038.309-2.891.887z" fill="#b8c9ea"/><path d="m494.05 351.093v25.767c0 7.838-2.866 15.396-8.051 21.273-8.884 10.07-22.911 27.534-30.379 44.968-5.067 11.83-16.674 19.514-29.544 19.514h-249.345c-5.074 0-10.086-1.078-14.712-3.162-22.45-10.114-93.773-41.519-132.797-50.298-9.613-2.163-16.466-10.652-16.466-20.505v-25.845z" fill="#e27f86"/><path d="m490.182 392.139c2.241-3.957 3.868-9.827 3.868-14.873v-26.173l-220.521 5.496-7.179 4.868c-1.023.694-2.232 1.348-3.468 1.348h-250.126v25.845c0 2.894.605 5.663 1.684 8.196h439.901c1.998 0 3.113 2.305 1.865 3.865-6.744 8.423-22.475 28.756-28.315 42.391-5.067 11.83-16.674 19.514-29.544 19.514h27.728c12.962 0 24.508-7.851 29.646-19.752 7.493-17.355 21.433-34.706 30.277-44.73.373-.423.74-.849 1.079-1.295.703-.925 1.63-2.029 2.978-4.475z" fill="#df646e"/><path d="m323.18 300.894-56.829 38.544c-1.024.694-2.232 1.066-3.47 1.066h-250.589c-6.789 0-12.292 5.503-12.292 12.292v9.739c0 6.789 5.503 12.292 12.292 12.292h474.462c13.943 0 25.246-11.303 25.246-25.246v-24.328c0-13.943-11.303-25.246-25.246-25.246h-160.682c-1.031-.001-2.038.309-2.892.887z" fill="#6a61b2"/><path d="m486.754 300.006h-26.205c13.943 0 25.246 11.303 25.246 25.246v24.328c0 13.943-11.303 25.246-25.246 25.246h26.205c13.943 0 25.246-11.303 25.246-25.246v-24.328c0-13.943-11.303-25.246-25.246-25.246z" fill="#514898"/><ellipse cx="229.795" cy="293.66" fill="#8a94db" rx="18.485" ry="18.486" transform="matrix(.099 -.995 .995 .099 -85.079 493.401)"/><path d="m381.21 319.965c-30.299 0-54.862 24.563-54.862 54.862 0 30.3 24.563 54.862 54.862 54.862 30.3 0 54.862-24.562 54.862-54.862 0-30.299-24.563-54.862-54.862-54.862zm0 82.293c-15.15 0-27.431-12.281-27.431-27.431 0-15.149 12.281-27.431 27.431-27.431s27.431 12.282 27.431 27.431c0 15.15-12.281 27.431-27.431 27.431z" fill="#d6e0f4"/></g></svg>