<svg xmlns="http://www.w3.org/2000/svg" xmlns:xlink="http://www.w3.org/1999/xlink" width="54" height="54" viewBox="0 0 54 54">
  <defs>
    <clipPath id="clip-path">
      <rect id="Rectángulo_369" data-name="Rectángulo 369" width="54" height="54" transform="translate(1493 647.317)" fill="#575757" stroke="#707070" stroke-width="1"/>
    </clipPath>
  </defs>
  <g id="Enmascarar_grupo_15" data-name="Enmascarar grupo 15" transform="translate(-1493 -647.317)" clip-path="url(#clip-path)">
    <g id="money" transform="translate(1493 649.873)">
      <path id="Trazado_225" data-name="Trazado 225" d="M51.068,51.022H2.432A2.439,2.439,0,0,1,0,48.59V21.84a2.439,2.439,0,0,1,2.432-2.432H51.068A2.439,2.439,0,0,1,53.5,21.84V48.59A2.439,2.439,0,0,1,51.068,51.022Z" transform="translate(0 -19.408)" fill="#0e9347"/>
      <path id="Trazado_226" data-name="Trazado 226" d="M224.1,194.09a8.138,8.138,0,0,0-6.809,3.526,9.07,9.07,0,0,0-4.134-1.094,8.507,8.507,0,0,0-8.39,7.3h25.412a2.473,2.473,0,0,0,2.432-2.067A8.661,8.661,0,0,0,224.1,194.09Z" transform="translate(-179.11 -172.204)" fill="#0d8944"/>
      <path id="Trazado_227" data-name="Trazado 227" d="M63.182,65.568H24.273A4.878,4.878,0,0,0,19.409,60.7V43.682a4.878,4.878,0,0,0,4.864-4.864H63.182a4.878,4.878,0,0,0,4.864,4.864V60.7A4.878,4.878,0,0,0,63.182,65.568Z" transform="translate(-16.977 -36.387)" fill="#3bb54a"/>
      <g id="Grupo_438" data-name="Grupo 438" transform="translate(9.727 4.864)">
        <path id="Trazado_228" data-name="Trazado 228" d="M229.191,194.09a8.138,8.138,0,0,0-6.809,3.526,9.07,9.07,0,0,0-4.134-1.094,8.352,8.352,0,0,0-7.66,4.864h19.819a4.853,4.853,0,0,1,4.742-4.864A8.79,8.79,0,0,0,229.191,194.09Z" transform="translate(-193.93 -177.068)" fill="#0e9347"/>
        <ellipse id="Elipse_70" data-name="Elipse 70" cx="9.727" cy="10.943" rx="9.727" ry="10.943" transform="translate(7.295)" fill="#0e9347"/>
        <circle id="Elipse_71" data-name="Elipse 71" cx="2.432" cy="2.432" r="2.432" transform="translate(0 8.511)" fill="#0e9347"/>
        <circle id="Elipse_72" data-name="Elipse 72" cx="2.432" cy="2.432" r="2.432" transform="translate(29.182 8.511)" fill="#0e9347"/>
      </g>
      <path id="Trazado_229" data-name="Trazado 229" d="M180.761,93.422h-2.432a1.216,1.216,0,1,1,0-2.432h3.648a1.216,1.216,0,0,0,0-2.432h-1.216a1.216,1.216,0,1,0-2.432,0,3.648,3.648,0,1,0,0,7.3h2.432a1.216,1.216,0,0,1,0,2.432h-3.648a1.216,1.216,0,0,0,0,2.432h1.216a1.216,1.216,0,1,0,2.432,0,3.648,3.648,0,1,0,0-7.3Z" transform="translate(-152.796 -78.831)" fill="#89c763"/>
      <circle id="Elipse_73" data-name="Elipse 73" cx="8.511" cy="8.511" r="8.511" transform="translate(23.102 24.318)" fill="#ffca5d"/>
      <circle id="Elipse_74" data-name="Elipse 74" cx="8.511" cy="8.511" r="8.511" transform="translate(34.045 21.886)" fill="#f6b545"/>
      <path id="Trazado_230" data-name="Trazado 230" d="M280.238,194.09a8.511,8.511,0,1,0,8.511,8.511A8.459,8.459,0,0,0,280.238,194.09Zm0,14.591a6.08,6.08,0,1,1,6.08-6.08A6.02,6.02,0,0,1,280.238,208.681Z" transform="translate(-237.681 -172.204)" fill="#ffcb5b"/>
      <path id="Trazado_231" data-name="Trazado 231" d="M339.659,270.412h0a8.357,8.357,0,0,0,8.511-8.39h-.122a1.293,1.293,0,0,0-1.216,1.094,7.351,7.351,0,0,1-2.31,4.377,6.889,6.889,0,0,1-3.769,1.824A1.09,1.09,0,0,0,339.659,270.412Z" transform="translate(-297.102 -231.625)" fill="#f6b545"/>
      <path id="Trazado_232" data-name="Trazado 232" d="M280.238,195.042h0a8.357,8.357,0,0,0-8.511,8.39h.122a1.293,1.293,0,0,0,1.216-1.094,7.351,7.351,0,0,1,2.31-4.377,6.89,6.89,0,0,1,3.769-1.824A1.09,1.09,0,0,0,280.238,195.042Z" transform="translate(-237.681 -173.034)" fill="#ffe27a"/>
      <path id="Trazado_233" data-name="Trazado 233" d="M291.987,220.43a6.02,6.02,0,0,1,6.08-6.08,5.735,5.735,0,0,1,3.891,1.459,6.061,6.061,0,0,0-10.822,3.769,5.829,5.829,0,0,0,2.189,4.62A5.7,5.7,0,0,1,291.987,220.43Z" transform="translate(-254.659 -189.181)" fill="#f19920"/>
      <path id="Trazado_234" data-name="Trazado 234" d="M364.952,261.548a.447.447,0,0,1-.365-.122.588.588,0,0,1,0-.851,4.058,4.058,0,0,0,1.094-2.8.608.608,0,0,1,1.216,0,5.614,5.614,0,0,1-1.338,3.648A1.322,1.322,0,0,1,364.952,261.548Z" transform="translate(-318.748 -227.38)" fill="#ffcb5b"/>
      <g id="Grupo_439" data-name="Grupo 439" transform="translate(34.167 24.318)">
        <path id="Trazado_235" data-name="Trazado 235" d="M331.17,240.205a1.149,1.149,0,0,1-1.216-1.216v-4.864a1.216,1.216,0,1,1,2.432,0v4.864A1.149,1.149,0,0,1,331.17,240.205Z" transform="translate(-322.78 -230.478)" fill="#f19920"/>
        <path id="Trazado_236" data-name="Trazado 236" d="M285.585,226.753a9.879,9.879,0,0,0-5.836-6.566,10.165,10.165,0,0,0-4.62-6.687,8.789,8.789,0,0,0-2.432,5.958,8.459,8.459,0,0,0,8.511,8.511A7.052,7.052,0,0,0,285.585,226.753Z" transform="translate(-272.697 -213.5)" fill="#f19920"/>
      </g>
      <g id="Grupo_440" data-name="Grupo 440" transform="translate(36.477 25.899)">
        <path id="Trazado_237" data-name="Trazado 237" d="M293.324,235.235a6.4,6.4,0,0,1-1.459-3.891,5.886,5.886,0,0,1,1.945-4.377,5.287,5.287,0,0,0-.73-.851,5.957,5.957,0,0,0-1.945,4.5A5.83,5.83,0,0,0,293.324,235.235Z" transform="translate(-291.135 -226.116)" fill="#e78825"/>
        <path id="Trazado_238" data-name="Trazado 238" d="M329.954,267.845v1.7a1.216,1.216,0,1,0,2.432,0V269.3A9.934,9.934,0,0,0,329.954,267.845Z" transform="translate(-325.09 -262.617)" fill="#e78825"/>
      </g>
      <path id="Trazado_239" data-name="Trazado 239" d="M284.737,227.6a7.772,7.772,0,0,0-.973-2.31,5.884,5.884,0,0,1-3.526,1.216,6.02,6.02,0,0,1-6.08-6.08,5.957,5.957,0,0,1,1.945-4.5,7.418,7.418,0,0,0-1.945-1.459,8.789,8.789,0,0,0-2.432,5.958,8.459,8.459,0,0,0,8.511,8.511A8.152,8.152,0,0,0,284.737,227.6Z" transform="translate(-237.681 -190.029)" fill="#f6b545"/>
      <path id="Trazado_240" data-name="Trazado 240" d="M343.792,310.545a8.4,8.4,0,0,1-3.04,1.216,1.293,1.293,0,0,0-1.094,1.216h0a8.154,8.154,0,0,0,4.5-1.337Z" transform="translate(-297.101 -274.068)" fill="#f19920"/>
      <path id="Trazado_241" data-name="Trazado 241" d="M274.158,214.47a8.789,8.789,0,0,0-2.432,5.958h.122a1.293,1.293,0,0,0,1.216-1.094,7.566,7.566,0,0,1,2.189-4.256A4.933,4.933,0,0,1,274.158,214.47Z" transform="translate(-237.681 -190.031)" fill="#ffcb5b"/>
      <circle id="Elipse_75" data-name="Elipse 75" cx="8.511" cy="8.511" r="8.511" transform="translate(23.102 24.318)" fill="#f6b545"/>
      <path id="Trazado_242" data-name="Trazado 242" d="M242.613,270.533a8.427,8.427,0,0,0,.365,2.432h.851a8.482,8.482,0,0,0,8.147-10.943h-.851A8.459,8.459,0,0,0,242.613,270.533Z" transform="translate(-212.215 -231.624)" fill="#f19920"/>
      <path id="Trazado_243" data-name="Trazado 243" d="M192.9,213.5a8.511,8.511,0,1,0,8.511,8.511A8.459,8.459,0,0,0,192.9,213.5Zm0,14.591a6.08,6.08,0,1,1,6.08-6.08A6.02,6.02,0,0,1,192.9,228.09Z" transform="translate(-161.283 -189.181)" fill="#ffcb5b"/>
      <path id="Trazado_244" data-name="Trazado 244" d="M252.317,289.821h0a8.357,8.357,0,0,0,8.511-8.39h-.122a1.293,1.293,0,0,0-1.216,1.094,7.351,7.351,0,0,1-2.31,4.377,6.89,6.89,0,0,1-3.769,1.824A1.09,1.09,0,0,0,252.317,289.821Z" transform="translate(-220.704 -248.602)" fill="#f6b545"/>
      <path id="Trazado_245" data-name="Trazado 245" d="M192.9,214.451h0a8.357,8.357,0,0,0-8.511,8.39h.122a1.293,1.293,0,0,0,1.216-1.094,7.351,7.351,0,0,1,2.31-4.377,6.89,6.89,0,0,1,3.769-1.824A1.09,1.09,0,0,0,192.9,214.451Z" transform="translate(-161.283 -190.011)" fill="#ffe27a"/>
      <path id="Trazado_246" data-name="Trazado 246" d="M204.646,239.84a6.021,6.021,0,0,1,6.08-6.08,5.735,5.735,0,0,1,3.891,1.459,6.061,6.061,0,0,0-10.822,3.769,5.829,5.829,0,0,0,2.189,4.62A5.7,5.7,0,0,1,204.646,239.84Z" transform="translate(-178.261 -206.159)" fill="#f19920"/>
      <path id="Trazado_247" data-name="Trazado 247" d="M277.612,280.956a.447.447,0,0,1-.365-.122.588.588,0,0,1,0-.851,4.058,4.058,0,0,0,1.094-2.8.608.608,0,0,1,1.216,0,5.615,5.615,0,0,1-1.337,3.648A1.322,1.322,0,0,1,277.612,280.956Z" transform="translate(-242.35 -244.357)" fill="#ffcb5b"/>
      <path id="Trazado_248" data-name="Trazado 248" d="M243.829,259.614a1.149,1.149,0,0,1-1.216-1.216v-4.864a1.216,1.216,0,1,1,2.432,0V258.4A1.149,1.149,0,0,1,243.829,259.614Z" transform="translate(-212.215 -223.137)" fill="#f19920"/>
      <g id="Grupo_441" data-name="Grupo 441" transform="translate(29.182 30.398)">
        <path id="Trazado_249" data-name="Trazado 249" d="M249.423,262.143a7.111,7.111,0,0,1,.486,2.31,6.02,6.02,0,0,1-6.08,6.08,4.135,4.135,0,0,1-1.216-.122v.122a8.428,8.428,0,0,0,.365,2.432h.851a8.482,8.482,0,0,0,8.147-10.943h-.851A8.036,8.036,0,0,0,249.423,262.143Z" transform="translate(-241.398 -262.022)" fill="#f6b545"/>
        <circle id="Elipse_76" data-name="Elipse 76" cx="8.511" cy="8.511" r="8.511" transform="translate(0 1.216)" fill="#f6b545"/>
      </g>
      <path id="Trazado_250" data-name="Trazado 250" d="M241.419,271.727a8.511,8.511,0,1,0,8.511,8.511A8.459,8.459,0,0,0,241.419,271.727Zm0,14.591a6.08,6.08,0,1,1,6.08-6.08A6.02,6.02,0,0,1,241.419,286.318Z" transform="translate(-203.726 -240.113)" fill="#ffcb5b"/>
      <path id="Trazado_251" data-name="Trazado 251" d="M300.84,348.048h0a8.357,8.357,0,0,0,8.511-8.39h-.122a1.293,1.293,0,0,0-1.216,1.094,7.351,7.351,0,0,1-2.31,4.377,6.89,6.89,0,0,1-3.769,1.824A1.09,1.09,0,0,0,300.84,348.048Z" transform="translate(-263.147 -299.534)" fill="#f6b545"/>
      <path id="Trazado_252" data-name="Trazado 252" d="M241.419,272.678h0a8.357,8.357,0,0,0-8.511,8.39h.122a1.293,1.293,0,0,0,1.216-1.094,7.351,7.351,0,0,1,2.31-4.377,6.89,6.89,0,0,1,3.769-1.824A1.09,1.09,0,0,0,241.419,272.678Z" transform="translate(-203.726 -240.943)" fill="#ffe27a"/>
      <path id="Trazado_253" data-name="Trazado 253" d="M253.169,298.066a6.02,6.02,0,0,1,6.08-6.08,5.735,5.735,0,0,1,3.891,1.459,6.061,6.061,0,0,0-10.822,3.769,5.829,5.829,0,0,0,2.189,4.62A5.7,5.7,0,0,1,253.169,298.066Z" transform="translate(-220.704 -257.09)" fill="#f19920"/>
      <path id="Trazado_254" data-name="Trazado 254" d="M326.134,339.183a.447.447,0,0,1-.365-.122.588.588,0,0,1,0-.851,4.058,4.058,0,0,0,1.094-2.8.608.608,0,1,1,1.216,0,5.615,5.615,0,0,1-1.337,3.648A1.322,1.322,0,0,1,326.134,339.183Z" transform="translate(-284.793 -295.289)" fill="#ffcb5b"/>
      <path id="Trazado_255" data-name="Trazado 255" d="M292.352,317.841a1.149,1.149,0,0,1-1.216-1.216v-4.864a1.216,1.216,0,1,1,2.432,0v4.864A1.149,1.149,0,0,1,292.352,317.841Z" transform="translate(-254.659 -274.068)" fill="#f19920"/>
    </g>
  </g>
</svg>
