<svg xmlns="http://www.w3.org/2000/svg" width="62.95" height="86.378" viewBox="0 0 62.95 86.378">
  <g id="pointer" transform="translate(-54.476)">
    <path id="Trazado_1207" data-name="Trazado 1207" d="M116.43,24.924,96.785,1.35a4.025,4.025,0,0,0-6.016,0L71.124,24.924a3.661,3.661,0,0,0-.552,4.174,3.708,3.708,0,0,0,3.561,2.272H85.921v39.29H66.276a1.874,1.874,0,0,0-1.535.676L54.918,83.123a2.021,2.021,0,0,0-.246,2.149,1.783,1.783,0,0,0,1.781,1.105H99.672a1.888,1.888,0,0,0,1.964-1.964V31.371h11.787a3.708,3.708,0,0,0,3.561-2.272A3.546,3.546,0,0,0,116.43,24.924Z"/>
  </g>
</svg>
