<svg xmlns="http://www.w3.org/2000/svg" width="82.126" height="149.433" viewBox="0 0 82.126 149.433">
  <g id="Grupo_280" data-name="Grupo 280" transform="translate(-3016.057 6969.268)">
    <path id="Trazado_105" data-name="Trazado 105" d="M3057.064-6968l-40.5,94.622s4,53.042,40.5,53.042,40.611-53.042,40.611-53.042Z" fill="none" stroke="#fff" stroke-width="1"/>
    <g id="Grupo_279" data-name="Grupo 279" transform="translate(3016.943 -6918.471)">
      <g id="Elipse_47" data-name="Elipse 47" transform="translate(17.057 0.471)" fill="none" stroke="#fff" stroke-width="1">
        <ellipse cx="23" cy="3" rx="23" ry="3" stroke="none"/>
        <ellipse cx="23" cy="3" rx="22.5" ry="2.5" fill="none"/>
      </g>
      <g id="Elipse_47-2" data-name="Elipse 47" transform="translate(11.057 13.471)" fill="none" stroke="#fff" stroke-width="1">
        <ellipse cx="29" cy="3.5" rx="29" ry="3.5" stroke="none"/>
        <ellipse cx="29" cy="3.5" rx="28.5" ry="3" fill="none"/>
      </g>
      <g id="Elipse_47-3" data-name="Elipse 47" transform="translate(6.057 26.471)" fill="none" stroke="#fff" stroke-width="1">
        <ellipse cx="34.5" cy="3.5" rx="34.5" ry="3.5" stroke="none"/>
        <ellipse cx="34.5" cy="3.5" rx="34" ry="3" fill="none"/>
      </g>
      <g id="Elipse_47-4" data-name="Elipse 47" transform="translate(0.057 39.471)" fill="none" stroke="#fff" stroke-width="1">
        <ellipse cx="40" cy="3.5" rx="40" ry="3.5" stroke="none"/>
        <ellipse cx="40" cy="3.5" rx="39.5" ry="3" fill="none"/>
      </g>
      <g id="Elipse_47-5" data-name="Elipse 47" transform="translate(1.057 53.471)" fill="none" stroke="#fff" stroke-width="1">
        <ellipse cx="39" cy="3" rx="39" ry="3" stroke="none"/>
        <ellipse cx="39" cy="3" rx="38.5" ry="2.5" fill="none"/>
      </g>
      <g id="Elipse_47-6" data-name="Elipse 47" transform="translate(5.057 66.471)" fill="none" stroke="#fff" stroke-width="1">
        <ellipse cx="35.5" cy="3.5" rx="35.5" ry="3.5" stroke="none"/>
        <ellipse cx="35.5" cy="3.5" rx="35" ry="3" fill="none"/>
      </g>
      <g id="Elipse_47-7" data-name="Elipse 47" transform="translate(12.057 79.471)" fill="none" stroke="#fff" stroke-width="1">
        <ellipse cx="28" cy="3.5" rx="28" ry="3.5" stroke="none"/>
        <ellipse cx="28" cy="3.5" rx="27.5" ry="3" fill="none"/>
      </g>
      <g id="Elipse_47-8" data-name="Elipse 47" transform="translate(25.057 93.471)" fill="none" stroke="#fff" stroke-width="1">
        <ellipse cx="15" cy="1.5" rx="15" ry="1.5" stroke="none"/>
        <ellipse cx="15" cy="1.5" rx="14.5" ry="1" fill="none"/>
      </g>
    </g>
    <path id="Trazado_106" data-name="Trazado 106" d="M1.084,106.267l.007.383.5,24.476" transform="translate(3018.481 -6986.645)" stroke="#fff" stroke-width="1"/>
    <line id="Línea_66" data-name="Línea 66" y2="57.889" transform="translate(3026.857 -6897.302)" fill="none" stroke="#fff" stroke-width="1"/>
    <line id="Línea_66-2" data-name="Línea 66" x1="0.109" y2="86.103" transform="translate(3035.065 -6914.602)" fill="none" stroke="#fff" stroke-width="1"/>
    <line id="Línea_66-3" data-name="Línea 66" y2="94.153" transform="translate(3042.494 -6917.596)" fill="none" stroke="#fff" stroke-width="1"/>
    <line id="Línea_66-4" data-name="Línea 66" y2="97.48" transform="translate(3050.478 -6918.261)" fill="none" stroke="#fff" stroke-width="1"/>
    <line id="Línea_66-5" data-name="Línea 66" x2="0.665" y2="97.979" transform="translate(3057.465 -6918.428)" fill="none" stroke="#fff" stroke-width="1"/>
    <line id="Línea_66-6" data-name="Línea 66" x2="0.665" y2="96.559" transform="translate(3065.117 -6918.006)" fill="none" stroke="#fff" stroke-width="1"/>
    <line id="Línea_66-7" data-name="Línea 66" x2="0.665" y2="92.49" transform="translate(3072.769 -6917.263)" fill="none" stroke="#fff" stroke-width="1"/>
    <line id="Línea_66-8" data-name="Línea 66" y2="85.836" transform="translate(3079.756 -6915.267)" fill="none" stroke="#fff" stroke-width="1"/>
    <line id="Línea_66-9" data-name="Línea 66" y2="54.895" transform="translate(3088.073 -6895.638)" fill="none" stroke="#fff" stroke-width="1"/>
    <line id="Línea_66-10" data-name="Línea 66" y2="16.635" transform="translate(3095.725 -6878.005)" fill="none" stroke="#fff" stroke-width="1"/>
  </g>
</svg>
