<svg xmlns="http://www.w3.org/2000/svg" xmlns:xlink="http://www.w3.org/1999/xlink" width="88" height="91" viewBox="0 0 88 91">
  <defs>
    <clipPath id="clip-path">
      <rect id="Rectángulo_367" data-name="Rectángulo 367" width="88" height="91" transform="translate(1493 635)" fill="#36393f" stroke="#707070" stroke-width="1"/>
    </clipPath>
  </defs>
  <g id="Enmascarar_grupo_8" data-name="Enmascarar grupo 8" transform="translate(-1493 -635)" clip-path="url(#clip-path)">
    <g id="yacht" transform="translate(1493 651.458)">
      <g id="Grupo_397" data-name="Grupo 397" transform="translate(3.775 7.26)">
        <g id="Grupo_393" data-name="Grupo 393" transform="translate(0 4.109)">
          <g id="Grupo_391" data-name="Grupo 391" transform="translate(18.004)">
            <path id="Trazado_156" data-name="Trazado 156" d="M154.444,136.026H128.308l-17.845,2.9h-5.387v-2.9l5.808-11.616-.639-1.452,20.662-.189,5.75-.058,1.815,1.7Z" transform="translate(-105.076 -122.711)" fill="#cfd8dc"/>
            <path id="Trazado_157" data-name="Trazado 157" d="M324.327,190.363l-17.1,20.574a23.907,23.907,0,0,1-3.6.261,22.187,22.187,0,0,1-2.918-.174c.247-.014.479-.058.711-.087l17.1-20.574a1.452,1.452,0,0,0-1.1-2.4h5.808a1.452,1.452,0,0,1,1.1,2.4Z" transform="translate(-260.788 -174.653)" fill="#cfd8dc"/>
          </g>
          <g id="Grupo_392" data-name="Grupo 392" transform="translate(0 0.058)">
            <path id="Trazado_158" data-name="Trazado 158" d="M148.636,136.252H128.308l-17.845,2.9h-5.387v-2.9l5.808-11.616-.639-1.452L130.907,123l1.757,1.641Z" transform="translate(-87.072 -122.995)" fill="#f4f4f4"/>
            <path id="Trazado_159" data-name="Trazado 159" d="M92.57,190.363l-17.1,20.574c-.232.029-.465.073-.711.087a21.933,21.933,0,0,1-2.889.174c-9.467,0-10.425-4.69-18.164-5.634-7.724.944-8.683,5.634-18.135,5.634a21.975,21.975,0,0,1-2.9-.174c-7.042-.857-8.465-4.835-15.827-5.532l7.521-11.717H28.19l17.845-2.9H40.227l17.845-2.9h33.4a1.452,1.452,0,0,1,1.1,2.4Z" transform="translate(-16.836 -174.71)" fill="#f4f4f4"/>
          </g>
        </g>
        <path id="Trazado_160" data-name="Trazado 160" d="M149.924,293h-.014" transform="translate(-122.757 -254.149)" fill="none" stroke="#000" stroke-linecap="round" stroke-linejoin="round" stroke-width="1.668"/>
        <g id="Grupo_396" data-name="Grupo 396" transform="translate(10.744)">
          <g id="Grupo_394" data-name="Grupo 394">
            <path id="Trazado_161" data-name="Trazado 161" d="M105.794,187.968v2.9a2.913,2.913,0,0,1-2.9,2.9h-33.4l3.92-5.227a1.472,1.472,0,0,1,1.162-.581h31.218Z" transform="translate(-69.495 -170.544)" fill="#283593"/>
            <path id="Trazado_162" data-name="Trazado 162" d="M132.807,108.379H100.864a2.9,2.9,0,1,1,0-5.808h24.553a7.26,7.26,0,0,1,6.49,4.007Z" transform="translate(-92.152 -102.571)" fill="#283593"/>
          </g>
          <g id="Grupo_395" data-name="Grupo 395">
            <path id="Trazado_163" data-name="Trazado 163" d="M101.438,187.968v2.9a2.913,2.913,0,0,1-2.9,2.9H69.495l3.92-5.227a1.472,1.472,0,0,1,1.162-.581h26.862Z" transform="translate(-69.495 -170.544)" fill="#3f51b5"/>
            <path id="Trazado_164" data-name="Trazado 164" d="M128.451,108.379H100.864a2.9,2.9,0,1,1,0-5.808h20.2a7.26,7.26,0,0,1,6.49,4.007Z" transform="translate(-92.152 -102.571)" fill="#3f51b5"/>
          </g>
          <path id="Trazado_165" data-name="Trazado 165" d="M214.43,136.845H193.376a2.913,2.913,0,0,1-2.9-2.9v-2.9h15.972Z" transform="translate(-165.788 -125.229)" fill="#1566c0"/>
          <path id="Trazado_166" data-name="Trazado 166" d="M207.9,136.845h-14.52a2.913,2.913,0,0,1-2.9-2.9v-2.9h9.438Z" transform="translate(-165.788 -125.229)" fill="#2296f3"/>
        </g>
      </g>
      <g id="Grupo_398" data-name="Grupo 398" transform="translate(0 0)">
        <path id="Trazado_167" data-name="Trazado 167" d="M85.667,111.815A20.265,20.265,0,0,0,74.436,114.9c-.637.351-1.266.7-1.927,1.016L86.426,99.183a2.9,2.9,0,0,0-2.211-4.792h-12.6l-15.3-11.129-.741-1.479a8.666,8.666,0,0,0-7.791-4.815H32.841l-1.452-2.9H39.2a1.452,1.452,0,1,0,0-2.9H23.232a1.452,1.452,0,1,0,0,2.9h4.911l1.452,2.9H23.232a4.356,4.356,0,0,0,0,8.712h2.007l-4.356,8.712H19.6a2.916,2.916,0,0,0-2.323,1.162L13.794,100.2H11.3a1.452,1.452,0,0,0-1.223.668l-7.062,11c-.5-.029-1.006-.055-1.559-.055a1.452,1.452,0,1,0,0,2.9,17.559,17.559,0,0,1,9.824,2.724,20.252,20.252,0,0,0,11.23,3.084,19.459,19.459,0,0,0,8.992-1.912l.02-.01c.774-.373,1.5-.77,2.211-1.162a17.554,17.554,0,0,1,9.818-2.724,17.568,17.568,0,0,1,9.828,2.724,20.267,20.267,0,0,0,11.237,3.084,20.266,20.266,0,0,0,11.231-3.084,17.57,17.57,0,0,1,9.823-2.724,1.452,1.452,0,0,0,0-2.9ZM40.655,85.68H54.7l3.993,2.9H42.107a1.452,1.452,0,0,1-1.452-1.452V85.68ZM21.78,81.324a1.452,1.452,0,0,1,1.452-1.452H47.785a5.763,5.763,0,0,1,5.014,2.9H23.232A1.452,1.452,0,0,1,21.78,81.324Zm6.705,4.356h9.267v1.452a4.356,4.356,0,0,0,4.356,4.356H62.689l3.993,2.9H24.129ZM19.6,97.3H49.367v1.452a1.452,1.452,0,0,1-1.452,1.452H17.424Zm35.177,17.6a20.267,20.267,0,0,0-11.231-3.084A20.244,20.244,0,0,0,32.324,114.9a17.546,17.546,0,0,1-9.818,2.724A17.561,17.561,0,0,1,12.68,114.9a21.924,21.924,0,0,0-6.48-2.614l5.889-9.182H47.915a4.356,4.356,0,0,0,4.356-4.356V97.3h4.356v4.356a1.452,1.452,0,1,0,2.9,0V97.3h2.9v4.356a1.452,1.452,0,0,0,2.9,0V97.3h2.9v4.356a1.452,1.452,0,0,0,2.9,0V97.3H84.2L67.47,117.438a21.632,21.632,0,0,1-2.858.186A17.568,17.568,0,0,1,54.779,114.9Z" transform="translate(0 -71.16)"/>
        <path id="Trazado_168" data-name="Trazado 168" d="M85.668,313.091a20.265,20.265,0,0,0-11.231,3.084,17.571,17.571,0,0,1-9.823,2.724,17.568,17.568,0,0,1-9.828-2.724,20.267,20.267,0,0,0-11.237-3.084,20.244,20.244,0,0,0-11.224,3.084,17.547,17.547,0,0,1-9.818,2.724,17.561,17.561,0,0,1-9.826-2.724,20.251,20.251,0,0,0-11.228-3.084,1.452,1.452,0,1,0,0,2.9,17.559,17.559,0,0,1,9.824,2.724,20.251,20.251,0,0,0,11.23,3.084,20.231,20.231,0,0,0,11.224-3.085A17.553,17.553,0,0,1,43.549,316a17.567,17.567,0,0,1,9.828,2.724A20.267,20.267,0,0,0,64.615,321.8a20.265,20.265,0,0,0,11.231-3.084A17.57,17.57,0,0,1,85.668,316a1.452,1.452,0,0,0,0-2.9Z" transform="translate(-0.001 -263.724)"/>
      </g>
    </g>
  </g>
</svg>
